#define 1445287967842_width 16
#define 1445287967842_height 16
static char 1445287967842_bits[] = {
  0xFE, 0x1F, 0x09, 0x30, 0x09, 0x54, 0x09, 0x94, 0x09, 0x94, 0x09, 0x90, 
  0xF1, 0x8F, 0x01, 0x80, 0xBD, 0xBD, 0x85, 0xA1, 0x85, 0xA1, 0xF5, 0xAF, 
  0xE5, 0xA7, 0xC5, 0xA3, 0x85, 0xA1, 0x3E, 0x7C, };
