#define 1445283026286_width 16
#define 1445283026286_height 16
static char 1445283026286_bits[] = {
  0xFE, 0x1F, 0x09, 0x30, 0x09, 0x54, 0x09, 0x94, 0x09, 0x94, 0x09, 0x90, 
  0xF1, 0x8F, 0x01, 0x80, 0xFD, 0xBF, 0x05, 0xA0, 0x05, 0xA0, 0x05, 0xA0, 
  0x05, 0xA0, 0x05, 0xA0, 0x05, 0xA0, 0xFE, 0x7F, };
