#define 1445287959139_width 16
#define 1445287959139_height 16
static char 1445287959139_bits[] = {
  0xFE, 0x1F, 0x09, 0x30, 0x09, 0x54, 0x09, 0x94, 0x09, 0x94, 0x09, 0x90, 
  0xF1, 0x8F, 0x01, 0x80, 0x3D, 0xBC, 0x85, 0xA1, 0xC5, 0xA3, 0xE5, 0xA7, 
  0xF5, 0xAF, 0x85, 0xA1, 0x85, 0xA1, 0xBE, 0x7D, };
