#define 1445283282879_width 16
#define 1445283282879_height 16
static char 1445283282879_bits[] = {
  0x80, 0x01, 0x58, 0x1A, 0x24, 0x24, 0x22, 0x44, 0x42, 0x42, 0xCC, 0x33, 
  0x72, 0x4E, 0x21, 0x84, 0x21, 0x84, 0x72, 0x4E, 0xCC, 0x33, 0x42, 0x42, 
  0x22, 0x44, 0x24, 0x24, 0x58, 0x1A, 0x80, 0x01, };
