#define 1445288864549_width 16
#define 1445288864549_height 16
static char 1445288864549_bits[] = {
  0x00, 0x01, 0x80, 0x02, 0xE0, 0x04, 0x10, 0x08, 0xC8, 0x04, 0xA4, 0x22, 
  0x14, 0x29, 0x12, 0x48, 0x0A, 0x50, 0x0A, 0x50, 0x12, 0x48, 0x14, 0x28, 
  0x64, 0x26, 0x88, 0x11, 0x30, 0x0C, 0xC0, 0x03, };
