#define 1445283408978_width 16
#define 1445283408978_height 16
static char 1445283408978_bits[] = {
  0x38, 0xC0, 0x48, 0xA0, 0x90, 0x50, 0xA3, 0x30, 0xA5, 0x08, 0x99, 0x04, 
  0x02, 0x01, 0x3C, 0x02, 0x40, 0x3C, 0x98, 0x40, 0x04, 0x99, 0x42, 0xA5, 
  0x41, 0xC5, 0x21, 0x09, 0x11, 0x12, 0x0E, 0x1C, };
