#define 1445284092795_width 16
#define 1445284092795_height 16
static char 1445284092795_bits[] = {
  0x00, 0x00, 0x00, 0x00, 0x00, 0x00, 0x80, 0x03, 0xE0, 0x03, 0x90, 0x23, 
  0x0B, 0x60, 0xFF, 0xFF, 0x23, 0x60, 0x20, 0x20, 0x40, 0x0E, 0x80, 0x0F, 
  0x00, 0x0E, 0x00, 0x00, 0x00, 0x00, 0x00, 0x00, };
