#define 1445549349982_width 16
#define 1445549349982_height 16
static char 1445549349982_bits[] = {
  0x80, 0x01, 0x40, 0x02, 0x20, 0x04, 0x20, 0x04, 0x90, 0x09, 0x90, 0x09, 
  0x88, 0x11, 0x88, 0x11, 0x84, 0x21, 0x84, 0x21, 0x82, 0x41, 0x02, 0x40, 
  0x81, 0x81, 0x81, 0x81, 0x02, 0x40, 0xFC, 0x3F, };
